<?xml version="1.0" standalone="no"?>
<!DOCTYPE svg PUBLIC "-//W3C//DTD SVG 20010904//EN"
 "http://www.w3.org/TR/2001/REC-SVG-20010904/DTD/svg10.dtd">
<svg version="1.0" xmlns="http://www.w3.org/2000/svg"
 width="617.000000pt" height="618.000000pt" viewBox="0 0 617.000000 618.000000"
 preserveAspectRatio="xMidYMid meet">
<metadata>
Created by potrace 1.16, written by Peter Selinger 2001-2019
</metadata>
<g transform="translate(0.000000,618.000000) scale(0.100000,-0.100000)"
fill="#000000" stroke="none">
<path d="M2890 6170 c-1116 -78 -2082 -723 -2570 -1715 -215 -437 -320 -884
-320 -1365 0 -693 244 -1383 685 -1935 102 -128 373 -400 495 -497 537 -424
1169 -657 1787 -658 257 0 433 94 522 279 l36 76 6 350 c4 193 7 562 8 822 l1
472 -69 -24 c-152 -51 -213 -60 -421 -59 -183 0 -202 2 -307 30 l-113 30 0
-321 c0 -456 -13 -540 -89 -594 -39 -28 -139 -28 -224 -1 -99 33 -313 142
-427 218 -502 333 -830 837 -941 1447 -28 156 -35 480 -14 630 38 259 98 461
205 680 269 553 757 964 1349 1136 306 89 876 91 1181 4 802 -229 1404 -895
1553 -1720 29 -161 31 -531 4 -700 -63 -395 -248 -794 -500 -1080 l-35 -40
-170 175 c-93 96 -172 173 -175 170 -6 -5 -40 -126 -92 -325 -13 -49 -56 -209
-95 -355 -39 -146 -83 -308 -97 -360 -14 -52 -33 -124 -43 -160 -94 -350 -161
-612 -159 -615 4 -3 341 82 504 128 167 46 578 158 935 253 195 52 360 96 366
98 7 3 -63 79 -154 169 l-166 165 33 39 c116 138 212 263 275 358 390 587 564
1269 506 1982 -99 1210 -925 2263 -2080 2654 -373 126 -817 185 -1190 159z"/>
<path d="M2911 3800 c-284 -75 -492 -297 -546 -583 -76 -400 180 -783 580
-868 77 -16 223 -16 300 0 153 33 278 104 393 226 124 131 187 278 199 464 22
355 -226 686 -574 765 -99 22 -258 20 -352 -4z"/>
</g>
</svg>
