<?xml version="1.0" standalone="no"?>
<!DOCTYPE svg PUBLIC "-//W3C//DTD SVG 20010904//EN"
 "http://www.w3.org/TR/2001/REC-SVG-20010904/DTD/svg10.dtd">
<svg version="1.0" xmlns="http://www.w3.org/2000/svg"
 width="238.000000pt" height="211.000000pt" viewBox="0 0 238.000000 211.000000"
 preserveAspectRatio="xMidYMid meet">
<metadata>
Created by potrace 1.16, written by Peter Selinger 2001-2019
</metadata>
<g transform="translate(0.000000,211.000000) scale(0.100000,-0.100000)"
fill="#000000" stroke="none">
<path d="M704 1525 c-20 -49 -18 -55 15 -49 16 4 46 1 68 -6 80 -26 243 -94
243 -102 0 -11 -33 -10 -63 1 -19 7 -27 6 -31 -4 -6 -17 -42 -23 -78 -14 -21
6 -25 4 -21 -7 3 -10 -2 -14 -19 -14 -36 0 -139 -54 -173 -91 -30 -31 -30 -31
-5 -24 14 4 30 12 37 17 8 6 12 3 15 -12 l3 -20 38 20 c36 20 49 16 25 -8 -17
-17 6 -16 57 3 57 20 65 19 65 -12 l1 -28 24 28 c13 15 26 27 28 27 2 0 1 -14
-1 -31 -4 -29 -3 -30 16 -20 11 6 27 17 35 25 13 13 15 11 21 -16 6 -30 7 -30
25 -14 19 17 20 17 32 -6 8 -14 14 -18 17 -10 6 19 22 4 22 -21 0 -16 3 -19 9
-8 15 23 28 4 34 -46 5 -44 2 -51 -30 -86 l-35 -39 23 -24 c16 -17 25 -21 30
-12 4 7 9 0 12 -18 2 -18 4 -12 4 16 -1 118 112 179 186 102 l26 -27 -29 -32
c-15 -17 -32 -28 -36 -25 -4 4 -4 2 0 -5 3 -6 2 -14 -4 -18 -5 -3 -15 -16 -21
-28 -10 -19 -7 -18 18 6 16 15 32 25 36 21 3 -3 4 2 1 13 -3 11 3 23 15 30 16
10 20 9 24 -8 3 -10 0 -19 -6 -19 -7 0 -4 -5 6 -11 10 -6 17 -22 17 -39 0 -16
5 -32 11 -36 9 -5 10 1 5 22 -5 24 -4 26 5 10 12 -20 -2 -66 -21 -66 -5 0 -3
-8 6 -17 8 -10 24 -29 35 -43 11 -14 17 -18 13 -10 -15 28 -14 53 3 91 20 44
44 50 67 17 14 -20 21 -18 17 5 -1 5 3 6 8 3 5 -3 15 1 22 10 11 13 10 17 -4
25 -9 5 -14 16 -11 24 4 8 10 12 15 9 5 -3 9 2 9 11 0 9 -4 13 -10 10 -5 -3
-10 -1 -10 4 0 6 -12 11 -26 11 -21 0 -24 3 -19 21 14 43 9 139 -7 156 -15 14
-16 12 -11 -19 4 -32 0 -39 -39 -72 -23 -21 -48 -47 -55 -59 -12 -22 -12 -22
-13 3 0 29 64 130 83 130 8 0 7 4 -3 10 -13 9 -13 11 0 20 10 6 11 10 3 10 -7
0 -20 -15 -29 -32 -10 -19 -19 -27 -22 -20 -2 7 3 23 11 36 13 19 13 23 1 23
-8 0 -14 -5 -14 -11 -1 -6 -7 -24 -14 -41 l-13 -30 -1 50 c-1 28 -8 66 -14 85
-7 19 -11 42 -10 51 3 17 -23 33 -38 24 -5 -3 -11 4 -15 15 -3 11 -10 20 -15
20 -5 0 -7 -6 -4 -14 3 -8 -5 -21 -17 -30 -13 -8 -20 -18 -16 -22 3 -4 1 -16
-5 -28 -10 -19 -9 -19 15 3 23 21 27 22 33 7 3 -9 3 -23 0 -32 -4 -12 -2 -15
9 -10 8 3 15 1 15 -4 0 -5 7 -6 17 -3 12 5 14 3 8 -8 -8 -12 -6 -12 8 0 12 9
17 10 17 2 0 -6 -7 -14 -15 -17 -12 -5 -13 -10 -4 -20 6 -7 8 -22 4 -34 -3
-11 -2 -20 3 -20 5 0 7 -12 4 -26 -5 -29 -22 -19 -25 15 -1 11 -4 21 -7 22 -3
0 -13 2 -22 4 -24 4 -23 -3 4 -25 23 -18 23 -18 -28 -17 -39 2 -57 -3 -73 -17
-12 -11 -21 -14 -21 -8 0 6 -3 18 -7 27 -5 15 -3 16 14 6 17 -8 26 -6 47 12
14 13 26 28 26 35 0 7 4 11 8 8 4 -2 14 -1 22 5 12 7 12 9 -3 9 -9 0 -35 -11
-57 -25 -22 -14 -41 -25 -43 -25 -2 0 -3 19 -3 43 l1 42 -47 -3 c-38 -3 -48
-1 -48 12 0 10 13 18 38 22 38 7 58 24 41 35 -13 8 6 59 22 59 8 0 8 4 -1 15
-7 8 -16 15 -20 15 -15 0 -69 -63 -63 -73 3 -6 1 -7 -5 -4 -6 5 -13 -8 -17
-33 -7 -39 -19 -52 -28 -27 -2 6 0 22 4 35 5 13 5 22 -1 22 -18 0 -10 22 10
27 11 3 18 8 16 12 -3 4 8 15 24 26 l28 19 -56 24 c-32 13 -89 37 -129 52
-112 45 -168 76 -196 110 -14 16 -28 30 -32 30 -3 0 -13 -16 -21 -35z"/>
<path d="M1533 1282 c-6 -4 -13 -21 -15 -37 -3 -28 -6 -30 -52 -35 -51 -5 -78
-30 -33 -30 28 0 77 -35 77 -56 0 -17 17 -19 23 -1 3 8 10 6 21 -8 8 -11 16
-15 16 -10 0 6 4 16 9 24 7 11 14 10 40 -8 l31 -22 0 32 0 32 23 -21 c29 -27
40 -28 32 -2 -9 28 8 25 72 -11 51 -30 55 -30 48 -10 -7 24 7 28 25 6 17 -20
40 -19 40 2 0 15 2 15 19 -1 11 -10 26 -16 33 -13 19 6 -63 80 -127 113 -29
15 -51 33 -49 39 3 6 -12 9 -42 7 -25 -3 -51 1 -57 7 -12 12 -115 15 -134 3z"/>
<path d="M50 996 c0 -9 18 -16 51 -20 35 -5 58 -14 74 -32 22 -24 23 -29 28
-337 6 -361 11 -394 81 -463 48 -49 108 -69 178 -61 71 9 115 34 201 116 l77
74 0 -97 c0 -90 1 -96 20 -96 11 0 81 25 154 56 94 39 133 60 129 69 -3 10
-18 12 -51 8 -40 -4 -50 -2 -67 17 -19 21 -20 38 -23 401 l-3 379 -154 0
c-127 0 -155 -3 -155 -14 0 -9 16 -17 43 -21 59 -10 84 -29 96 -72 7 -22 11
-152 11 -310 l0 -271 -52 -42 c-100 -81 -188 -101 -256 -60 -64 39 -67 56 -70
443 l-3 347 -155 0 c-124 0 -154 -3 -154 -14z"/>
<path d="M1164 836 c-4 -22 -6 -53 -5 -68 1 -16 -2 -28 -8 -28 -6 0 -11 -10
-11 -23 0 -24 -56 -94 -67 -83 -3 3 1 14 10 24 22 25 21 29 -8 34 -16 4 -25 0
-28 -11 -3 -12 -6 -10 -14 9 l-10 24 -12 -22 c-14 -27 -7 -42 20 -42 11 0 18
-4 15 -9 -4 -5 0 -11 6 -14 7 -3 -11 -8 -39 -12 -43 -6 -53 -11 -53 -27 0 -16
5 -18 35 -12 31 5 35 4 35 -15 0 -12 -5 -18 -12 -16 -9 4 -13 -8 -15 -36 l-1
-41 19 31 c10 17 25 46 33 64 7 19 21 34 30 34 22 0 21 -2 -19 -63 -50 -74
-46 -102 13 -95 6 1 12 -4 12 -11 0 -9 3 -9 12 0 7 7 27 12 46 12 21 0 31 4
26 11 -3 6 -22 9 -40 7 -44 -5 -55 22 -25 63 12 15 21 35 21 43 0 8 7 22 16
30 8 9 13 20 10 24 -3 5 -1 24 5 43 19 65 37 159 29 159 -3 0 -7 7 -7 15 0 11
4 12 11 5 5 -5 16 -10 23 -10 23 0 14 18 -16 33 l-30 15 -7 -42z"/>
<path d="M1206 779 c-3 -17 -6 -46 -6 -63 0 -18 -4 -36 -10 -42 -5 -5 -12 -32
-15 -59 -3 -28 -8 -60 -10 -72 -5 -20 -1 -23 25 -23 37 0 46 28 31 98 -11 53
-4 155 11 146 4 -3 5 -10 2 -16 -4 -7 -2 -8 4 -4 7 4 12 1 12 -8 0 -8 -5 -18
-10 -21 -11 -7 -11 -64 1 -80 4 -5 10 -34 14 -62 7 -53 13 -58 49 -44 14 5 16
10 8 15 -7 4 -12 22 -11 39 l1 32 9 -32 c5 -18 14 -33 19 -33 12 0 14 -40 3
-41 -5 0 -23 -2 -42 -5 -19 -2 -40 1 -48 7 -11 9 -12 8 -7 -5 4 -10 18 -16 38
-16 18 0 41 -7 52 -15 10 -8 27 -15 36 -15 19 0 50 39 41 53 -3 5 -9 3 -14 -4
-7 -11 -9 -10 -9 3 0 12 -5 15 -16 11 -12 -4 -15 -2 -12 8 6 15 11 15 41 4 10
-4 17 -3 17 4 0 6 -8 11 -17 11 -17 1 -17 2 -2 13 15 11 15 16 3 46 -8 19 -12
36 -10 39 8 7 27 -9 23 -21 -2 -6 10 -22 25 -36 22 -18 26 -26 16 -32 -9 -6
-5 -9 13 -9 15 0 37 -9 50 -19 22 -18 23 -20 6 -27 -12 -4 -25 0 -38 15 -11
11 -24 21 -29 21 -13 0 -3 -42 12 -52 10 -6 10 -8 1 -8 -7 0 -16 7 -21 16 -8
14 -10 13 -23 -2 -11 -13 -11 -18 -2 -21 9 -3 10 -10 4 -22 -8 -15 -5 -17 23
-17 22 1 32 5 29 14 -8 19 26 14 54 -8 33 -26 40 -25 45 4 3 16 0 27 -10 31
-8 3 -12 13 -10 23 5 19 -6 34 -35 45 -10 4 -15 11 -12 17 4 6 12 4 21 -5 9
-8 19 -13 24 -10 5 3 10 0 12 -7 2 -6 9 -8 16 -4 16 10 8 52 -9 48 -9 -1 -7 3
4 11 9 8 17 17 17 21 0 12 -21 6 -38 -10 -15 -15 -16 -15 -23 2 -5 13 -8 15
-8 4 -1 -12 -3 -12 -10 -2 -4 7 -6 24 -4 36 3 13 0 27 -6 30 -6 4 -11 2 -11
-4 0 -13 -52 -5 -85 13 -11 6 -35 12 -52 12 -34 2 -77 31 -67 46 3 5 0 9 -6 9
-6 0 -24 14 -39 31 l-28 30 -7 -32z"/>
<path d="M1187 473 c-9 -2 -15 -8 -12 -13 3 -5 12 -7 20 -3 8 3 15 1 15 -5 0
-12 -33 -22 -75 -22 -29 -1 -29 -1 -11 -15 11 -8 14 -15 8 -15 -7 0 -21 -9
-32 -20 -11 -11 -15 -20 -9 -20 5 0 7 -5 3 -12 -5 -7 -3 -8 6 -3 10 6 12 4 7
-8 -3 -10 -2 -17 4 -17 7 0 8 12 4 30 -6 27 -4 30 19 30 19 0 24 4 19 16 -5
14 -3 14 15 -2 25 -21 19 -38 -10 -28 -14 4 -18 2 -14 -5 4 -6 2 -11 -3 -11
-17 0 -13 -14 9 -38 17 -18 23 -20 35 -10 12 11 11 16 -7 31 -25 21 -11 23 20
1 12 -8 26 -13 30 -10 4 2 9 -9 10 -25 3 -32 -23 -42 -32 -11 -3 9 -4 5 -2
-10 4 -32 -8 -37 -23 -10 -6 9 -11 12 -11 6 -1 -37 84 -36 104 1 6 11 12 22
14 25 2 3 10 -3 17 -13 13 -18 14 -18 25 3 6 12 9 24 6 28 -3 3 -6 -1 -6 -8 0
-7 -2 -11 -5 -8 -11 11 7 58 22 58 11 0 12 -8 7 -36 -5 -27 -4 -35 5 -30 6 4
11 3 11 -3 0 -6 23 -13 50 -17 32 -4 50 -11 50 -20 0 -17 -12 -18 -29 -1 -11
10 -12 8 -6 -12 5 -16 4 -21 -4 -17 -6 4 -11 13 -11 21 0 7 -6 15 -14 18 -9 4
-12 0 -9 -13 7 -25 -12 -33 -28 -13 -12 15 -12 16 6 10 19 -7 19 -6 1 7 -14
11 -23 12 -36 4 -16 -10 -16 -12 1 -29 13 -13 31 -17 76 -15 53 2 58 4 61 26
3 18 6 20 13 9 7 -12 9 -11 9 2 0 20 -55 73 -68 65 -6 -3 -12 0 -15 8 -7 18
27 10 44 -10 6 -8 16 -14 21 -14 6 0 5 7 -2 15 -7 8 -10 22 -6 30 3 9 0 15 -8
15 -10 0 -12 7 -8 22 5 21 6 21 13 2 5 -14 8 -15 8 -3 1 8 -5 24 -13 34 -12
16 -18 18 -37 8 -36 -17 -82 -26 -74 -13 3 5 13 10 21 10 8 0 14 5 14 11 0 7
-12 10 -29 7 -17 -2 -28 -1 -26 3 3 4 -2 12 -9 18 -11 9 -16 9 -21 0 -4 -6 -1
-15 6 -20 17 -11 -13 -12 -59 -3 -23 5 -30 11 -27 25 4 19 -3 21 -38 12z"/>
</g>
</svg>
